<?xml version="1.0" encoding="utf-8" ?><svg xmlns="http://www.w3.org/2000/svg" xmlns:xlink="http://www.w3.org/1999/xlink" width="9217" height="5267" viewBox="0 0 9217 5267"><path fill="white" transform="scale(6.85811 6.85811)" d="M0 0L1344 0L1344 768L0 768L0 0Z"/><path fill="#32373C" transform="scale(6.85811 6.85811)" d="M305.671 184.517C305.889 177.801 303.856 162.011 311.361 160.145C316.811 161.365 317.673 164.287 317.548 169.354C316.888 196.128 319.011 218.22 294.602 235.619C299.115 254.739 303.594 274.868 308.494 293.819C312.705 309.092 318.068 324.081 321.937 339.447C335.184 392.051 349.475 445.293 360.917 498.294C366.19 482.145 374.271 463.038 380.356 446.754C380.1 446.542 379.845 446.328 379.593 446.111C366.211 434.607 358.54 422.96 371.873 407.717C367.543 395.432 371.498 389.218 379.692 380.373C378.39 369.606 383.638 362.893 392.394 357.424C388.44 345.948 393.042 333.181 405.971 330.867C410.656 330.029 413.678 331.076 418.16 332.268C420.513 321.325 424.313 309.169 427.165 298.168L442.994 236.046C442.44 235.768 441.899 235.468 441.371 235.145C417.983 220.938 419.18 192.352 418.509 168.685C417.742 163.63 422.818 157.5 427.414 161.655C430.954 164.856 429.828 179.781 430.46 184.813C468.632 199.408 469.452 199.059 484.435 237.764C508.811 249.773 548.249 259.684 570.587 275.503C586.738 286.815 599.296 302.536 606.761 320.79C614.05 338.192 618.223 374.313 621.37 394.66C625.848 424.413 630.627 454.119 635.706 483.774C642.632 487.492 648.286 492.508 638.922 498.291C639.13 526.348 638.854 555.084 639.023 583.172C639.068 590.754 631.62 593.509 625.398 592.914C614.936 592.74 604.464 592.953 594.033 592.681C593.104 595.454 592.267 596.692 589.539 597.892C585.391 598.35 582.142 595.098 578.889 592.572C570.44 592.877 562.047 592.579 553.625 593.003C549.987 598.104 546.073 597.926 542.689 592.859C536.036 592.511 527.804 592.667 521.029 592.609C517.944 599.472 513.038 599.137 509.575 592.778C493.797 592.274 475.271 592.712 459.264 592.718L363.557 592.773C361.449 599.797 354.028 600.384 351.888 592.698L262.718 592.735C248.477 592.744 230.641 592.273 216.62 592.863C214.261 600.05 208.119 599.816 205.067 593.008C200.336 592.413 186.687 592.717 182.033 592.896C179.112 599.106 174.219 597.875 170.91 592.815C161.843 592.388 149.29 592.718 139.978 592.711L81.9426 592.762C75.9829 601.807 70.0146 592.063 71.5447 586.711C74.369 576.832 76.2555 567.278 78.3048 557.229L102.944 442.19C108.036 417.075 113.295 391.994 118.72 366.949C121.842 352.051 124.755 333.23 130.435 319.588C139.727 297.275 159.828 276.551 181.531 266.102C189.968 262.039 201.681 257.944 210.692 254.471C225.028 248.976 239.302 243.318 253.511 237.5C268.176 199.391 269.442 201.052 305.671 184.517Z"/><path fill="#D1D4D8" transform="scale(6.85811 6.85811)" d="M81.9426 592.762C95.2836 533.777 107.99 474.649 120.06 415.39C123.016 401.202 126.063 386.879 129.134 372.709C132.701 356.253 134.714 338.386 141.461 323.087C148.917 306.092 161.296 291.724 177 281.839C197.148 269.244 226.415 262.333 247.513 251.889C240.762 269.024 232.704 285.811 226.751 303.245C225.573 306.694 225.419 311.918 229.363 313.493C235.748 313.141 267.623 294.667 275.434 290.403C279.522 295.561 307.343 330.733 308.796 335.71C320.759 376.673 332.097 424.575 341.711 466.459C345.934 484.856 350.827 501.129 353.824 517.601C350.512 524.92 351.646 538.476 351.669 546.846L351.888 592.698L262.718 592.735C248.477 592.744 230.641 592.273 216.62 592.863C214.261 600.05 208.119 599.816 205.067 593.008C200.336 592.413 186.687 592.717 182.033 592.896C179.112 599.106 174.219 597.875 170.91 592.815C161.843 592.388 149.29 592.718 139.978 592.711L81.9426 592.762Z"/><path fill="#32373C" transform="scale(6.85811 6.85811)" d="M170.91 592.815C171.562 585.547 173.658 576.303 175.091 569.009L184.002 524.869L197.457 456.224C199.058 448.292 200.541 440.351 202.07 432.406C202.755 428.842 204.6 424.507 209.033 425.016C210.876 425.234 212.541 426.221 213.617 427.733C218.259 434.203 215.029 572.616 216.62 592.863C214.261 600.05 208.119 599.816 205.067 593.008C200.336 592.413 186.687 592.717 182.033 592.896C179.112 599.106 174.219 597.875 170.91 592.815Z"/><path fill="#D1D4D8" transform="scale(6.85811 6.85811)" d="M203.602 483.028L204.729 488.499L205.1 559.95C205.129 567.104 205.667 587.183 205.067 593.008C200.336 592.413 186.687 592.717 182.033 592.896C183.97 581.654 186.879 568.91 189.149 557.557C194.187 532.758 199.005 507.914 203.602 483.028Z"/><path fill="#878890" transform="scale(6.85811 6.85811)" d="M203.602 483.028C203.676 482.099 203.668 481.741 204.034 480.876C204.141 480.819 204.247 480.761 204.354 480.704C205.1 481.353 204.765 487.359 204.729 488.499L203.602 483.028Z"/><path fill="#D1D4D8" transform="scale(6.85811 6.85811)" d="M389.213 455.55C405.027 468.143 422.911 474.084 441.863 480.485C456.201 485.327 463.301 486.926 475.63 495.572C474.639 498.424 470.976 507.852 472.602 509.622C481.076 518.847 499.901 531.911 509.453 539.557C509.481 557.087 509.258 575.304 509.575 592.778C493.797 592.274 475.271 592.712 459.264 592.718L363.557 592.773C362.763 572.464 362.498 546.525 363.521 525.817C363.951 517.115 372.723 501 375.031 492.225C379.647 480.462 384.318 467.01 389.213 455.55Z"/><path fill="#32373C" transform="scale(6.85811 6.85811)" d="M391.203 523.906C398.52 521.662 406.269 525.782 408.503 533.104C410.737 540.425 406.608 548.171 399.286 550.396C391.976 552.618 384.249 548.497 382.019 541.188C379.789 533.88 383.899 526.146 391.203 523.906Z"/><path fill="#D1D4D8" transform="scale(6.85811 6.85811)" d="M568.415 458.099C590.017 469.724 610.915 482.654 632.229 494.798C634.527 496.107 636.487 497.208 638.922 498.291C639.13 526.348 638.854 555.084 639.023 583.172C639.068 590.754 631.62 593.509 625.398 592.914C614.936 592.74 604.464 592.953 594.033 592.681C593.671 591.25 593.207 589.641 592.078 588.666C584.206 581.874 574.889 575.217 566.583 568.984C549.671 556.373 532.859 543.629 516.148 530.754C529.176 502.505 546.372 479.969 568.415 458.099Z"/><path fill="#D1D4D8" transform="scale(6.85811 6.85811)" d="M521.075 548.206C526.37 552.573 534.45 558.673 539.338 563.11C539.95 572.172 541.064 584.022 542.689 592.859C536.036 592.511 527.804 592.667 521.029 592.609L521.075 548.206Z"/><path fill="#D1D4D8" transform="scale(6.85811 6.85811)" d="M551.754 571.94C560.452 578.014 570.415 585.912 578.889 592.572C570.44 592.877 562.047 592.579 553.625 593.003C553.615 586.149 552.25 578.969 551.754 571.94Z"/><path fill="#D1D4D8" transform="scale(6.85811 6.85811)" d="M489.98 252.319C508.96 259.663 548.354 273.775 563.928 284.623C577.988 294.407 589.049 307.91 595.874 323.623C602.813 339.777 605.486 366.885 608.373 385.159C612.952 415.649 617.866 446.088 623.113 476.47C616.436 472.02 607.168 466.96 600.119 462.84C587.449 455.467 574.844 447.984 562.304 440.394C555.4 436.249 538.291 425.068 530.464 422.95C528.611 422.448 523.896 427.441 522.178 429.16C512.969 421.917 511.317 414.769 506.474 404.549C502.062 396.518 498.025 384.872 492.671 377.536C481.829 362.68 468.233 348.655 456.489 334.47C450.476 327.209 450.072 320.834 441.923 315.458C447.688 307.312 454.461 298.959 460.855 291.309C466.596 294.327 500.828 314.375 504.656 313.431C506.673 312.934 507.716 311.833 508.751 310.113C509.906 305.526 492.401 260.572 489.98 252.319Z"/><path fill="white" transform="scale(6.85811 6.85811)" d="M435.411 324.481C440.597 326.154 440.819 332.79 444.836 337.686C458.088 353.836 473.034 368.515 484.99 385.63C496.871 402.639 497.774 424.576 514.482 436.532C499.292 454.859 491.73 464.103 480.11 485.05C468.389 476.937 463.084 476.196 450.251 471.661C425.323 462.852 404.439 456.857 385.644 437.262C379.394 430.746 376.608 429.16 376.238 419.837C376.992 418.31 377.048 418.218 378.232 416.985C383.803 416.847 387.55 427.471 393.706 427.601C398.011 425.974 398.721 420.812 395.756 417.597C386.552 407.617 374.131 402.699 386.083 388.426C388.959 390.949 401.732 403.552 403.152 403.41C421.4 401.585 398.539 385.99 396.908 384.616C387.918 377.038 389.412 372.236 398.754 366.032C404.231 369.554 414.116 383.321 420.212 378.412C421.26 376.04 421.831 373.369 420.002 371.245C413.813 364.124 403.77 360.666 401.242 350.568C399.611 342.495 406.987 340.417 414.285 343.492C422.352 346.889 444.571 373.346 452.463 363.945C455.853 359.907 445.877 353.235 442.685 350.508C435.828 344.651 428.48 333.996 434.98 325.067L435.411 324.481Z"/><path fill="#D1D4D8" transform="scale(6.85811 6.85811)" d="M531.404 435.609C534.699 436.491 554.688 449.403 558.522 451.818C537.744 471.676 520.615 495.029 507.916 520.815C507.492 521.835 507.284 521.93 506.572 522.781C504.705 522.184 487.126 508.206 483.914 505.804C496.08 475.257 508.648 459.533 531.404 435.609Z"/><path fill="#D1D4D8" transform="scale(6.85811 6.85811)" d="M431.186 197.175C446.583 202.668 459.547 206.204 466.329 222.5C476.167 246.142 483.8 270.707 492.158 294.934L466.504 280.978C463.948 279.486 461.138 278.32 458.423 277.122C452.621 281.586 443.486 294.614 438.796 300.912C442.396 281.455 451.986 251.999 454.961 231.73C455.278 229.571 448.573 226.212 446.25 224.773C436.457 218.709 433.494 207.828 431.186 197.175Z"/><path fill="#D1D4D8" transform="scale(6.85811 6.85811)" d="M305.046 197.594C305.738 204.857 299.288 217.414 293.448 221.851C290.459 224.122 284.873 227.548 282.979 230.241C281.763 235.992 296.348 292.355 298.728 302.684C294.118 295.66 283.895 281.891 278.014 276.488C274.975 277.886 271.644 279.7 268.639 281.247L242.419 294.841L243.248 292.672C252.519 268.75 263.431 244.915 272.769 220.935C277.959 207.607 292.789 203.039 305.046 197.594Z"/><path fill="#32373C" transform="scale(6.85811 6.85811)" d="M993.012 290.111C994.364 289.958 996.924 289.788 998.058 290.542C1019.32 304.193 1038 324.948 1059.82 337.644C1082.59 350.892 1107.52 365.704 1131.57 376.163C1138.05 378.999 1144.61 381.63 1151.25 384.051C1157.17 386.148 1165.76 388.765 1171.24 391.586C1177.49 394.795 1168.59 408.17 1166.28 412.703C1162.73 419.689 1157.92 426.939 1152.88 433.343L1160.35 442.192C1195.92 454.342 1234.54 461.8 1270.31 473.746C1276.46 475.8 1278.48 481.295 1272.45 484.904C1269.18 485.538 1214.66 469.547 1207.81 467.531C1196.13 464.091 1165.84 456.483 1153.91 451.834C1143.07 437.983 1130.43 420.535 1116.86 409.274C1112.25 405.45 1101.23 400.482 1095.6 397.069C1090.22 393.81 1072.39 376.598 1068.68 376.42C1065.84 377.551 1066.57 376.863 1064.69 379.128C1064.45 380.085 1064.28 381.024 1064.43 382.013C1065.23 387.344 1072.25 396.986 1077.11 399.285C1079.59 400.465 1083.36 400.679 1085.4 402.578C1086.39 403.499 1086.9 404.938 1086.94 406.266C1086.99 407.898 1086.48 409.603 1085.27 410.749C1075.44 420.06 1014.53 382.032 1002.56 381.803C1000.37 381.761 999.24 382.453 997.722 383.895C997.252 385.072 996.786 386.246 996.912 387.538C997.974 398.456 1039.44 409.905 1048.31 418.131C1049.67 419.396 1051 421.175 1050.91 423.138C1050.83 424.918 1050.09 425.536 1048.92 426.712C1047.09 427.439 1044.4 427.617 1042.54 426.86C1022.65 418.786 1003.6 408.303 984.003 399.502C981.155 398.223 977.846 397.778 975.028 399.066C973.332 401.007 973.779 400.077 973.301 402.579C974.938 409.1 987.362 413.958 993.172 416.833L1021.7 430.917C1026.96 433.513 1041.39 439.213 1042.63 445.06C1042.4 446.456 1042.03 447.519 1041.03 448.565C1039.88 449.777 1038.22 450.258 1036.58 450.006C1032.22 449.336 1027.47 446.248 1023.49 444.286C1014.49 439.837 985.085 423.765 977.38 424.108C975.028 424.212 973.711 424.925 972.155 426.633C970.561 433.887 982.257 438.501 987.178 440.955C995.929 445.362 1004.73 449.66 1013.59 453.848C1019.66 456.684 1038.32 462.856 1036.13 470.892C1034.73 473.061 1031.58 474.775 1029.32 473.773C1015.5 467.645 1000.98 459.849 987.174 453.951C985.851 453.455 985.117 453.567 983.721 453.581C982.149 454.26 980.678 455.14 979.945 456.781C979.272 458.287 979.333 459.794 980.074 461.253C982.794 466.612 1042.22 492.618 1050.95 495.796C1060.99 499.45 1071.51 502.537 1082.02 504.458C1096.97 507.186 1114.55 503.601 1128.22 508.016C1137.17 510.908 1146.12 516.478 1154.51 520.735L1197.04 542.003L1250.03 568.125C1256.23 571.206 1262.49 574.082 1268.69 577.253C1272.28 579.171 1276.45 581.588 1274.62 586.38C1273.61 589.376 1269.74 590.533 1267.04 589.091C1257.32 583.917 1247.37 579.112 1237.47 574.278L1162.66 537.591C1164.03 547.899 1165.56 558.188 1167.23 568.454C1168.17 574.216 1170.78 587.567 1170.44 592.887C1169.36 595.267 1169.05 595.496 1167.05 597.024C1165.13 597.337 1163.88 597.506 1162.16 596.302C1157.77 593.232 1151.54 539.344 1150.17 531.313C1144.83 528.318 1139.59 525.746 1134.11 523.045C1133.76 539.161 1134.09 555.376 1134.09 571.496C1134.09 577.235 1137.58 601.17 1126.08 597.917C1121.65 593.267 1122.92 572.531 1122.92 565.515L1122.89 517.751L1115.26 516.313C1101.36 536.332 1085.42 555.661 1071.7 575.936C1066.3 583.927 1060.79 576.368 1055.57 572.101C1050.78 568.186 1045.83 564.471 1040.73 560.967C1023.96 549.606 1006.41 539.347 989.428 528.294C960.356 509.369 924.978 483.9 899.223 461.02C897.035 459.076 894.61 457.03 894.542 453.912C894.48 451.062 910.76 428.729 913.81 424.118C933.721 394.022 951.073 362.183 969.023 330.887C974.56 321.234 986.28 296.692 993.012 290.111Z"/><path fill="#D1D4D8" transform="scale(6.85811 6.85811)" d="M997.506 303.718C1002.26 306.613 1008.6 312.228 1012.92 315.945C1055.26 352.382 1107.1 380.55 1159.8 399.78C1155.48 409.29 1151.84 415.383 1146.12 424.188C1140.24 417.876 1134.1 409.646 1127.58 404.013C1118.9 396.523 1107.73 391.561 1098.18 384.745C1090.57 380.147 1080.56 369.165 1072.87 365.645C1065.82 362.417 1053.26 370.709 1052.9 378.826C1052.58 386.199 1054.78 388.949 1057.78 394.753C1047.04 389.057 1011.51 369.78 1001.36 370.217C985.671 370.894 990.599 381.152 985.009 387.188C983.222 387.014 977.999 386.314 976.64 386.542C962.11 388.979 957.261 405.403 968.731 414.949L968.407 415.262C954.434 429.022 960.936 436.008 972.121 446.444C973.934 448.135 957.748 464.724 980.793 475.894C1022.34 495.707 1053.4 514.71 1100.82 517.281C1089.93 530.621 1075.28 551.154 1065.47 565.523C1043.63 547.69 1020.88 535.943 997.9 520.41C968.56 500.575 933.675 477.102 907.838 453.028C932.942 418.533 953.403 380.137 974.882 343.317C981.889 331.305 990.071 315.013 997.506 303.718Z"/><path fill="#32373C" transform="scale(6.85811 6.85811)" d="M927.982 160.774C929.901 160.904 933.367 161.447 933.971 163.018C936.15 173.192 935.052 191.825 933.81 202.038C929.456 237.839 902.384 252.489 870.781 260.97C853.657 265.566 831.275 273.345 815.082 280.321C795.769 288.641 775.808 308.168 766.581 326.997C755.662 351.177 752.224 379.909 746.585 405.893C733.074 468.149 721.319 530.786 707.121 592.874C706.667 594.86 704.965 596.269 703.448 597.497C697.659 596.787 695.726 593.44 696.867 587.974C702.485 561.053 708.385 533.513 713.993 506.643L737.213 395.447C742.349 371.355 745.702 344.512 756.073 322.88C778.573 275.95 823.055 263.856 868.661 250.012C881.747 246.039 893.847 242.542 904.711 233.752C926.139 216.416 923.111 192.026 924.015 167.492C924.192 163.849 925.345 162.814 927.982 160.774Z"/><path fill="#32373C" transform="scale(6.85811 6.85811)" d="M1044.54 160.816L1045.29 160.984C1052.58 162.667 1051.71 170.377 1051.42 176.656C1049.33 221.401 1063.05 239.009 1104.74 250.753C1145.98 262.37 1186.56 274.944 1210.73 313.792C1216.17 322.691 1220.34 332.303 1223.12 342.353C1230.61 369.526 1231.79 402.035 1237.44 429.941C1238.99 437.59 1242.63 444.308 1234.85 448.964L1234.33 448.828C1229.61 447.542 1228.8 445.888 1227.99 441.034C1227.06 435.371 1226.48 429.674 1225.55 423.996C1223.31 410.834 1221.22 397.646 1219.28 384.436C1215.41 358.942 1213.76 337.505 1198.55 315.718C1173.92 280.437 1141.02 274.167 1102.51 261.823C1092.74 258.691 1082.01 256.061 1073.1 250.975C1063.37 245.382 1055.3 237.307 1049.72 227.575C1041.38 213.17 1040.27 199.003 1040.14 182.749C1040.08 175.003 1036.85 165.115 1044.54 160.816Z"/><path fill="#32373C" transform="scale(6.85811 6.85811)" d="M829.051 480.681C824.467 504.409 819.695 528.1 814.736 551.752C811.978 565.3 809.318 579 805.965 592.402C804.655 597.636 799.565 598.957 795.832 594.819C795.312 592.507 795.855 586.688 796.456 583.754C807.075 531.89 817.036 479.554 829.016 428.074C829.569 425.699 837.185 424.584 838.865 427.371C841.882 432.373 841.103 444.367 841.216 450.503L841.929 482.193C842.788 517.42 843.538 552.778 843.451 588.035C843.443 590.899 843.374 594.966 841.383 597.147C840.074 598.581 839.323 598.342 837.695 598.36C835.268 597.316 834.021 596.03 833.033 593.565C832.391 591.925 832.006 590.196 831.892 588.438C831.554 583.47 832.027 576.274 832.023 571.008C832.004 546.807 830.75 521.777 830.72 497.68C830.338 495.032 830.712 480.954 829.051 480.681Z"/><path fill="#878890" transform="scale(6.85811 6.85811)" d="M829.051 480.681C829.045 480.752 830.313 473.814 830.499 476.281C830.99 482.826 831.18 491.094 830.72 497.68C830.338 495.032 830.712 480.954 829.051 480.681Z"/><path fill="#F20822" transform="scale(6.85811 6.85811)" d="M346.812 264.577C357.342 264.542 412.742 262.928 417.863 265.79C419.409 266.654 419.549 267.204 419.91 268.8C417.427 276.175 402.363 273.757 395.933 273.749L353.215 273.769L353.625 329.336C358.02 325.174 363.112 319.495 367.254 315.033C370.745 313.229 373.186 313.306 374.718 317.222C374.422 323.378 352.899 344.807 348.203 344.664C343.186 342.326 323.911 324.451 322.112 319.932C322.024 317.699 321.969 317.344 323.164 315.486C329.473 311.788 339.536 324.944 343.917 329.536C344.108 310.641 343.651 291.65 343.832 272.76C343.871 268.716 343.942 267.214 346.812 264.577Z"/><path fill="#F20822" transform="scale(6.85811 6.85811)" d="M1239.8 151.439C1246.09 151.147 1250.03 158.058 1254.04 161.964C1256.68 164.536 1272.32 178.178 1271.21 180.634C1267.3 189.338 1252.71 202.407 1245.01 209.003C1242.79 210.632 1241.01 210.497 1239.22 210.123C1235.16 205.142 1239.38 201.649 1242.9 198.116C1247.04 193.966 1251.14 189.763 1255.23 185.566C1244.44 184.469 1206.07 187.799 1199.3 183.402C1197.79 182.426 1197.65 181.798 1197.35 180.168C1200.1 173.604 1211.27 175.664 1217.72 175.659L1254.56 175.756C1249.79 170.853 1239.18 162.929 1237.41 156.448C1236.91 154.63 1238.63 152.836 1239.8 151.439Z"/><path fill="#F20822" transform="scale(6.85811 6.85811)" d="M583.112 150.829C597.612 153.951 575.284 171.179 570.837 175.887C586.116 175.781 608.32 175.011 624.162 176.278C627.032 176.507 628.05 180.478 626.51 183.569C623.118 186.848 580.018 185.31 572.84 185.274L572.23 185.332L571.898 186.076C575.731 192.799 589.191 200.612 588.055 208.209C586.513 210.18 587.297 209.677 585.15 210.385C578.886 208.998 554.95 186.239 554.885 180.199C557.06 175.29 578.256 154.564 583.112 150.829Z"/><path fill="#32373C" transform="scale(6.85811 6.85811)" d="M879.167 465.758C882.966 468.399 890.976 483.089 892.477 488.169C895.677 498.999 891.809 505.706 881.134 508.875C851.795 507.718 872.799 477.576 879.167 465.758Z"/><path fill="#32373C" transform="scale(6.85811 6.85811)" d="M872.949 388.983C876.601 393.722 886.142 411.8 887.411 418.011C885.658 427.221 882.396 430.696 873.213 432.542C845.307 430.05 865.862 400.516 872.949 388.983Z"/><path fill="#32373C" transform="scale(6.85811 6.85811)" d="M903.486 336.487C906.252 338.752 916.524 358.781 917.395 362.8C919.419 372.138 913.248 378.046 904.067 379.943C889.881 378.536 886.574 367.622 892.592 356.172C896.103 349.491 900.115 343.269 903.486 336.487Z"/></svg>